<svg width="18" height="18" viewBox="0 0 18 18" fill="none" xmlns="http://www.w3.org/2000/svg">
<mask id="mask0_330_5965" style="mask-type:alpha" maskUnits="userSpaceOnUse" x="0" y="0" width="18" height="18">
<rect width="18" height="18" fill="white"/>
</mask>
<g mask="url(#mask0_330_5965)">
<path d="M14.3847 9.43755L8.75975 15.0086L3.13475 9.43755C2.76373 9.07652 2.47148 8.64257 2.27641 8.16303C2.08134 7.6835 1.98767 7.16877 2.0013 6.65126C2.01493 6.13374 2.13557 5.62466 2.35562 5.15606C2.57566 4.68746 2.89035 4.2695 3.27986 3.92849C3.66938 3.58748 4.12528 3.33082 4.61886 3.17467C5.11244 3.01851 5.633 2.96624 6.14777 3.02116C6.66255 3.07607 7.16037 3.23697 7.6099 3.49374C8.05944 3.7505 8.45093 4.09756 8.75975 4.51306C9.0699 4.10057 9.46185 3.75655 9.91107 3.50251C10.3603 3.24847 10.8571 3.08989 11.3704 3.0367C11.8838 2.9835 12.4026 3.03683 12.8943 3.19335C13.3861 3.34987 13.8403 3.60621 14.2284 3.94633C14.6166 4.28645 14.9303 4.70302 15.1501 5.16997C15.3698 5.63693 15.4908 6.14422 15.5055 6.66009C15.5202 7.17596 15.4282 7.6893 15.2353 8.16799C15.0425 8.64669 14.7529 9.08042 14.3847 9.44206" stroke="white" stroke-width="2" stroke-linecap="round" stroke-linejoin="round"/>
</g>
</svg>
